<svg width="30" height="30" viewBox="0 0 30 30" fill="none" xmlns="http://www.w3.org/2000/svg">
    <path d="M5.59113 7.58622H28.3744L25.4836 17.1552C25.2658 17.8755 24.806 18.5091 24.1736 18.9602C23.5412 19.4113 22.7707 19.6552 21.9787 19.6552H9.76685C8.86912 19.6557 8.00278 19.3428 7.33381 18.7765C6.66485 18.2102 6.24033 17.4303 6.14158 16.5862L4.6798 4.13794H1.03448" stroke="black" stroke-width="1.03448" stroke-linecap="round" stroke-linejoin="round"/>
    <path d="M9.23645 25.6896C10.2431 25.6896 11.0591 24.9177 11.0591 23.9655C11.0591 23.0133 10.2431 22.2413 9.23645 22.2413C8.22983 22.2413 7.41379 23.0133 7.41379 23.9655C7.41379 24.9177 8.22983 25.6896 9.23645 25.6896Z" fill="black"/>
    <path d="M23.8177 25.6896C24.8244 25.6896 25.6404 24.9177 25.6404 23.9655C25.6404 23.0133 24.8244 22.2413 23.8177 22.2413C22.8111 22.2413 21.9951 23.0133 21.9951 23.9655C21.9951 24.9177 22.8111 25.6896 23.8177 25.6896Z" fill="black"/>
</svg>
