<svg width="30" height="30" viewBox="0 0 30 30" fill="none" xmlns="http://www.w3.org/2000/svg">
    <mask id="path-1-inside-1_255_670" fill="white">
        <path d="M20.9866 4.13794C18.4195 4.13794 16.2069 5.28374 15 7.18179C13.7931 5.28374 11.5805 4.13794 9.01341 4.13794C7.17231 4.14002 5.40725 4.8278 4.1054 6.05041C2.80354 7.27302 2.07118 8.93064 2.06897 10.6597C2.06897 13.8744 4.22414 17.2343 8.46264 20.6436C10.4197 22.2075 12.5327 23.5906 14.7725 24.7736C14.8424 24.809 14.9206 24.8276 15 24.8276C15.0794 24.8276 15.1576 24.809 15.2275 24.7736C17.4673 23.5906 19.5803 22.2075 21.5374 20.6436C25.7759 17.2343 27.931 13.8744 27.931 10.6597C27.9288 8.93064 27.1965 7.27302 25.8946 6.05041C24.5927 4.8278 22.8277 4.14002 20.9866 4.13794ZM15 23.8628C13.3238 22.9633 3.02682 17.1893 3.02682 10.6597C3.02872 9.16913 3.66006 7.74014 4.78235 6.68616C5.90464 5.63218 7.42625 5.03927 9.01341 5.03749C11.5409 5.03749 13.665 6.30923 14.557 8.3557C14.5931 8.4382 14.6545 8.50876 14.7333 8.55841C14.8122 8.60807 14.905 8.63458 15 8.63458C15.095 8.63458 15.1878 8.60807 15.2667 8.55841C15.3455 8.50876 15.4069 8.4382 15.443 8.3557C16.335 6.30923 18.4591 5.03749 20.9866 5.03749C22.5737 5.03927 24.0954 5.63218 25.2176 6.68616C26.3399 7.74014 26.9713 9.16913 26.9732 10.6597C26.9732 17.1814 16.6762 22.9678 15 23.8628Z"/>
    </mask>
    <path d="M20.9866 4.13794C18.4195 4.13794 16.2069 5.28374 15 7.18179C13.7931 5.28374 11.5805 4.13794 9.01341 4.13794C7.17231 4.14002 5.40725 4.8278 4.1054 6.05041C2.80354 7.27302 2.07118 8.93064 2.06897 10.6597C2.06897 13.8744 4.22414 17.2343 8.46264 20.6436C10.4197 22.2075 12.5327 23.5906 14.7725 24.7736C14.8424 24.809 14.9206 24.8276 15 24.8276C15.0794 24.8276 15.1576 24.809 15.2275 24.7736C17.4673 23.5906 19.5803 22.2075 21.5374 20.6436C25.7759 17.2343 27.931 13.8744 27.931 10.6597C27.9288 8.93064 27.1965 7.27302 25.8946 6.05041C24.5927 4.8278 22.8277 4.14002 20.9866 4.13794ZM15 23.8628C13.3238 22.9633 3.02682 17.1893 3.02682 10.6597C3.02872 9.16913 3.66006 7.74014 4.78235 6.68616C5.90464 5.63218 7.42625 5.03927 9.01341 5.03749C11.5409 5.03749 13.665 6.30923 14.557 8.3557C14.5931 8.4382 14.6545 8.50876 14.7333 8.55841C14.8122 8.60807 14.905 8.63458 15 8.63458C15.095 8.63458 15.1878 8.60807 15.2667 8.55841C15.3455 8.50876 15.4069 8.4382 15.443 8.3557C16.335 6.30923 18.4591 5.03749 20.9866 5.03749C22.5737 5.03927 24.0954 5.63218 25.2176 6.68616C26.3399 7.74014 26.9713 9.16913 26.9732 10.6597C26.9732 17.1814 16.6762 22.9678 15 23.8628Z" fill="black"/>
    <path d="M20.9866 4.13794L20.9889 2.06897H20.9866V4.13794ZM15 7.18179L13.2541 8.29194L15 11.0377L16.7459 8.29194L15 7.18179ZM9.01341 4.13794L9.01341 2.06897L9.01107 2.06898L9.01341 4.13794ZM2.06897 10.6597L4.76837e-07 10.657V10.6597H2.06897ZM8.46264 20.6436L7.16588 22.2557L7.171 22.2598L8.46264 20.6436ZM14.7725 24.7736L13.8062 26.6031L13.8216 26.6112L13.837 26.619L14.7725 24.7736ZM15.2275 24.7736L16.163 26.619L16.1784 26.6112L16.1938 26.6031L15.2275 24.7736ZM21.5374 20.6436L22.829 22.2598L22.8341 22.2557L21.5374 20.6436ZM27.931 10.6597L30 10.6597L30 10.657L27.931 10.6597ZM15 23.8628L14.0217 25.6859L14.9976 26.2096L15.9745 25.6879L15 23.8628ZM3.02682 10.6597L0.957855 10.657V10.6597H3.02682ZM9.01341 5.03749L9.01341 2.96852L9.01108 2.96853L9.01341 5.03749ZM14.557 8.3557L12.6604 9.18239L12.6614 9.18483L14.557 8.3557ZM15.443 8.3557L17.3386 9.18483L17.3396 9.18239L15.443 8.3557ZM20.9866 5.03749L20.9889 2.96852H20.9866V5.03749ZM26.9732 10.6597L29.0421 10.6597L29.0421 10.657L26.9732 10.6597ZM20.9866 2.06897C17.8083 2.06897 14.8897 3.49941 13.2541 6.07164L16.7459 8.29194C17.5241 7.06807 19.0308 6.2069 20.9866 6.2069V2.06897ZM16.7459 6.07164C15.1103 3.49941 12.1917 2.06897 9.01341 2.06897V6.2069C10.9692 6.2069 12.4759 7.06807 13.2541 8.29194L16.7459 6.07164ZM9.01107 2.06898C6.66248 2.07163 4.38682 2.94782 2.68904 4.54225L5.52175 7.55857C6.42769 6.70778 7.68214 6.20841 9.01575 6.2069L9.01107 2.06898ZM2.68904 4.54225C0.986884 6.1408 0.00297855 8.33681 2.17916e-06 10.657L4.13793 10.6623C4.13939 9.52448 4.6202 8.40525 5.52175 7.55857L2.68904 4.54225ZM4.76837e-07 10.6597C4.76837e-07 14.8283 2.7694 18.7193 7.16589 22.2557L9.7594 19.0314C5.67888 15.7492 4.13793 12.9206 4.13793 10.6597H4.76837e-07ZM7.171 22.2598C9.23066 23.9058 11.4528 25.3601 13.8062 26.6031L15.7388 22.9442C13.6126 21.8212 11.6087 20.5093 9.75429 19.0273L7.171 22.2598ZM13.837 26.619C14.2009 26.8035 14.6001 26.8966 15 26.8966V22.7586C15.241 22.7586 15.4839 22.8146 15.708 22.9282L13.837 26.619ZM15 26.8966C15.3999 26.8966 15.7991 26.8035 16.163 26.619L14.292 22.9282C14.5161 22.8146 14.759 22.7586 15 22.7586V26.8966ZM16.1938 26.6031C18.5472 25.3601 20.7693 23.9058 22.829 22.2598L20.2457 19.0273C18.3913 20.5093 16.3874 21.8212 14.2612 22.9442L16.1938 26.6031ZM22.8341 22.2557C27.2306 18.7193 30 14.8283 30 10.6597H25.8621C25.8621 12.9206 24.3211 15.7492 20.2406 19.0314L22.8341 22.2557ZM30 10.657C29.997 8.33681 29.0131 6.1408 27.311 4.54225L24.4782 7.55857C25.3798 8.40525 25.8606 9.52448 25.8621 10.6623L30 10.657ZM27.311 4.54225C25.6132 2.94782 23.3375 2.07163 20.9889 2.06898L20.9842 6.2069C22.3179 6.20841 23.5723 6.70778 24.4782 7.55857L27.311 4.54225ZM15.9783 22.0398C15.189 21.6162 12.3453 20.0292 9.72673 17.7978C8.418 16.6825 7.22825 15.4588 6.37846 14.1958C5.52561 12.9283 5.09579 11.7432 5.09579 10.6597H0.957855C0.957855 12.841 1.81515 14.8262 2.94535 16.5059C4.07862 18.1901 5.56788 19.6904 7.04291 20.9473C9.99183 23.4602 13.1348 25.2099 14.0217 25.6859L15.9783 22.0398ZM5.09578 10.6623C5.09693 9.76295 5.47672 8.87236 6.19871 8.19432L3.36599 5.178C1.8434 6.60792 0.960512 8.5753 0.957857 10.657L5.09578 10.6623ZM6.19871 8.19432C6.92507 7.51217 7.93607 7.10767 9.01574 7.10645L9.01108 2.96853C6.91643 2.97088 4.88421 3.7522 3.36599 5.178L6.19871 8.19432ZM9.01341 7.10645C10.8555 7.10645 12.1489 8.00893 12.6604 9.18239L16.4536 7.52902C15.1811 4.60953 12.2264 2.96852 9.01341 2.96852V7.10645ZM12.6614 9.18483C12.8697 9.66106 13.2145 10.0471 13.6311 10.3093L15.8356 6.80749C16.0944 6.97043 16.3164 7.21533 16.4526 7.52658L12.6614 9.18483ZM13.6311 10.3093C14.0466 10.5709 14.5228 10.7035 15 10.7035V6.56561C15.2873 6.56561 15.5778 6.64526 15.8356 6.80749L13.6311 10.3093ZM15 10.7035C15.4772 10.7035 15.9534 10.5709 16.3689 10.3093L14.1644 6.80749C14.4221 6.64526 14.7127 6.56561 15 6.56561V10.7035ZM16.3689 10.3093C16.7855 10.0471 17.1303 9.66107 17.3386 9.18483L13.5474 7.52658C13.6836 7.21532 13.9056 6.97043 14.1644 6.80749L16.3689 10.3093ZM17.3396 9.18239C17.8511 8.00893 19.1445 7.10645 20.9866 7.10645V2.96852C17.7736 2.96852 14.8189 4.60953 13.5464 7.52902L17.3396 9.18239ZM20.9843 7.10645C22.0639 7.10767 23.0749 7.51217 23.8013 8.19432L26.634 5.178C25.1158 3.7522 23.0836 2.97088 20.9889 2.96853L20.9843 7.10645ZM23.8013 8.19432C24.5233 8.87236 24.9031 9.76295 24.9042 10.6623L29.0421 10.657C29.0395 8.5753 28.1566 6.60792 26.634 5.178L23.8013 8.19432ZM24.9042 10.6597C24.9042 11.7408 24.4747 12.9252 23.6215 14.1931C22.7716 15.4563 21.5816 16.6809 20.2728 17.7969C17.6537 20.0301 14.8097 21.619 14.0255 22.0377L15.9745 25.6879C16.8665 25.2116 20.0091 23.4598 22.9576 20.9456C24.4325 19.6879 25.9215 18.1871 27.0546 16.5032C28.1845 14.824 29.0421 12.8394 29.0421 10.6597H24.9042Z" fill="black" mask="url(#path-1-inside-1_255_670)"/>
</svg>
